<?xml version="1.0" encoding="utf-8"?>
<!-- Generator: Adobe Illustrator 24.1.1, SVG Export Plug-In . SVG Version: 6.00 Build 0)  -->
<svg version="1.1" id="Capa_1" xmlns="http://www.w3.org/2000/svg" xmlns:xlink="http://www.w3.org/1999/xlink" x="0px" y="0px"
	 viewBox="0 0 44.4 19.3" style="enable-background:new 0 0 44.4 19.3;" xml:space="preserve">
<style type="text/css">
	.st0{fill:#FFFFFF;}
</style>
<g>
	<path class="st0" d="M31.1,0.5C33.4,3,35.7,5.6,38,8.1c1.8,2,3.6,4,5.5,5.9c0.4,0.4,0.4,0.7,0,1.1c-1.1,1.1-2.2,2.2-3.2,3.4
		c-0.4,0.4-0.6,0.3-0.9,0c-2.5-2.6-5-5.2-7.5-7.9c-0.4-0.5-0.7-0.5-1.2,0c-2.5,2.6-5,5.2-7.5,7.9c-0.4,0.4-0.6,0.5-0.9,0
		c-1-1.3-2.2-2.4-3.3-3.5c-0.3-0.3-0.3-0.4,0-0.7c4-4.5,8-9,12-13.5C30.9,0.6,30.9,0.6,31.1,0.5z"/>
	<path class="st0" d="M13.5,14.6c-0.1,0.1-0.2,0.2-0.2,0.3c-1.2,1.2-2.4,2.5-3.5,3.7c-0.3,0.3-0.4,0.3-0.7,0
		C6.4,15.7,3.7,12.8,1,9.9C0.7,9.6,0.5,9.5,0.8,9.2C2,8,3.2,6.7,4.4,5.5c0.3-0.3,0.4-0.3,0.7,0c2.7,2.9,5.4,5.8,8.1,8.7
		C13.3,14.3,13.4,14.4,13.5,14.6z"/>
</g>
</svg>
